{
    "asset" : {
        "generator" : "Khronos glTF Blender I/O v1.7.33",
        "version" : "2.0"
    },
    "scene" : 0,
    "scenes" : [
        {
            "name" : "Scene",
            "nodes" : [
                3
            ]
        }
    ],
    "nodes" : [
        {
            "mesh" : 0,
            "name" : "O",
            "scale" : [
                15.510637283325195,
                15.510637283325195,
                15.510637283325195
            ],
            "translation" : [
                -0.19176791608333588,
                1.5412870645523071,
                0
            ]
        },
        {
            "mesh" : 1,
            "name" : "Q",
            "scale" : [
                15.510637283325195,
                15.510637283325195,
                15.510637283325195
            ],
            "translation" : [
                -0.19176791608333588,
                1.5412870645523071,
                0
            ]
        },
        {
            "mesh" : 2,
            "name" : "V",
            "scale" : [
                15.510637283325195,
                15.510637283325195,
                15.510637283325195
            ],
            "translation" : [
                -0.19176791608333588,
                1.5412870645523071,
                0
            ]
        },
        {
            "children" : [
                0,
                1,
                2
            ],
            "name" : "QVO"
        }
    ],
    "materials" : [
        {
            "doubleSided" : true,
            "name" : "SVGMat.004",
            "pbrMetallicRoughness" : {
                "baseColorFactor" : [
                    0.3316648602485657,
                    0.3316648602485657,
                    0.3316648602485657,
                    0
                ],
                "metallicFactor" : 0,
                "roughnessFactor" : 0.690034806728363
            }
        },
        {
            "doubleSided" : true,
            "name" : "SVGMat.003",
            "pbrMetallicRoughness" : {
                "baseColorFactor" : [
                    0.3316648602485657,
                    0.3316648602485657,
                    0.3316648602485657,
                    0
                ],
                "metallicFactor" : 0,
                "roughnessFactor" : 0.690034806728363
            }
        },
        {
            "doubleSided" : true,
            "name" : "SVGMat.005",
            "pbrMetallicRoughness" : {
                "baseColorFactor" : [
                    0.3316648602485657,
                    0.3316648602485657,
                    0.3316648602485657,
                    0
                ],
                "metallicFactor" : 0,
                "roughnessFactor" : 0.690034806728363
            }
        }
    ],
    "meshes" : [
        {
            "name" : "CUCurve.003",
            "primitives" : [
                {
                    "attributes" : {
                        "POSITION" : 0,
                        "NORMAL" : 1
                    },
                    "indices" : 2,
                    "material" : 0
                }
            ]
        },
        {
            "name" : "CUCurve.004",
            "primitives" : [
                {
                    "attributes" : {
                        "POSITION" : 3,
                        "NORMAL" : 4
                    },
                    "indices" : 5,
                    "material" : 1
                }
            ]
        },
        {
            "name" : "CUCurve.005",
            "primitives" : [
                {
                    "attributes" : {
                        "POSITION" : 6,
                        "NORMAL" : 7
                    },
                    "indices" : 8,
                    "material" : 2
                }
            ]
        }
    ],
    "accessors" : [
        {
            "bufferView" : 0,
            "componentType" : 5126,
            "count" : 829,
            "max" : [
                0.2390589416027069,
                0,
                0.0716913640499115
            ],
            "min" : [
                0.09659025073051453,
                -0.1952562928199768,
                -0.1096300333738327
            ],
            "type" : "VEC3"
        },
        {
            "bufferView" : 1,
            "componentType" : 5126,
            "count" : 829,
            "type" : "VEC3"
        },
        {
            "bufferView" : 2,
            "componentType" : 5123,
            "count" : 1656,
            "type" : "SCALAR"
        },
        {
            "bufferView" : 3,
            "componentType" : 5126,
            "count" : 997,
            "max" : [
                -0.07382698357105255,
                0,
                0.10865754634141922
            ],
            "min" : [
                -0.21734143793582916,
                -0.19440099596977234,
                -0.11049120873212814
            ],
            "type" : "VEC3"
        },
        {
            "bufferView" : 4,
            "componentType" : 5126,
            "count" : 997,
            "type" : "VEC3"
        },
        {
            "bufferView" : 5,
            "componentType" : 5123,
            "count" : 1992,
            "type" : "SCALAR"
        },
        {
            "bufferView" : 6,
            "componentType" : 5126,
            "count" : 1318,
            "max" : [
                0.08124848455190659,
                0,
                0.07188732177019119
            ],
            "min" : [
                -0.05895981192588806,
                -0.19234807789325714,
                -0.10986139625310898
            ],
            "type" : "VEC3"
        },
        {
            "bufferView" : 7,
            "componentType" : 5126,
            "count" : 1318,
            "type" : "VEC3"
        },
        {
            "bufferView" : 8,
            "componentType" : 5123,
            "count" : 3000,
            "type" : "SCALAR"
        }
    ],
    "bufferViews" : [
        {
            "buffer" : 0,
            "byteLength" : 9948,
            "byteOffset" : 0
        },
        {
            "buffer" : 0,
            "byteLength" : 9948,
            "byteOffset" : 9948
        },
        {
            "buffer" : 0,
            "byteLength" : 3312,
            "byteOffset" : 19896
        },
        {
            "buffer" : 0,
            "byteLength" : 11964,
            "byteOffset" : 23208
        },
        {
            "buffer" : 0,
            "byteLength" : 11964,
            "byteOffset" : 35172
        },
        {
            "buffer" : 0,
            "byteLength" : 3984,
            "byteOffset" : 47136
        },
        {
            "buffer" : 0,
            "byteLength" : 15816,
            "byteOffset" : 51120
        },
        {
            "buffer" : 0,
            "byteLength" : 15816,
            "byteOffset" : 66936
        },
        {
            "buffer" : 0,
            "byteLength" : 6000,
            "byteOffset" : 82752
        }
    ],
    "buffers" : [
        {
            "byteLength" : 88752,
            "uri" : "data:application/octet-stream;base64,"
        }
    ]
}
